<svg width="96" height="96" xmlns="http://www.w3.org/2000/svg" xmlns:xlink="http://www.w3.org/1999/xlink" xml:space="preserve" overflow="hidden"><g transform="translate(-447 -250)"><path d="M503.898 306.783 504.102 308.773 481.101 311.132 480.897 309.143Z" stroke="#00F66F" stroke-width="1.33333" fill="#FFFFFF"/><path d="M468 332 468 326 473 326 473 317.907 509.291 314.376C510.83 314.231 512.005 312.936 512 311.39L512 284.732C512.004 283.19 510.835 281.897 509.3 281.747L473 278.1 473 270 468 270 468 264 461 264 461 332ZM509.1 283.737C509.611 283.788 510 284.218 510 284.732L510 311.39C510.003 311.905 509.613 312.339 509.1 312.39L473 315.9 473 280.105ZM463 330 463 266 466 266 466 272 471 272 471 324 466 324 466 330Z" stroke="#00F66F" stroke-width="1.33333" fill="#FFFFFF"/><path d="M529 297 529 299 517 299 517 297Z" stroke="#00F66F" stroke-width="1.33333" fill="#FFFFFF"/><path d="M500 264 500 274 498 274 498 264Z" stroke="#00F66F" stroke-width="1.33333" fill="#FFFFFF"/><path d="M500 322 500 332 498 332 498 322Z" stroke="#00F66F" stroke-width="1.33333" fill="#FFFFFF"/><path d="M522.293 269.293 523.707 270.707 515.707 278.707 514.293 277.293Z" stroke="#00F66F" stroke-width="1.33333" fill="#FFFFFF"/><path d="M515.707 317.293 523.707 325.293 522.293 326.707 514.293 318.707Z" stroke="#00F66F" stroke-width="1.33333" fill="#FFFFFF"/></g></svg>