<svg width="96" height="96" xmlns="http://www.w3.org/2000/svg" xmlns:xlink="http://www.w3.org/1999/xlink" xml:space="preserve" overflow="hidden"><g transform="translate(-592 -312)"><path d="M672.4 382.4C668.7 374.2 659.6 371.3 659 347L659 347.1C658.7 340.1 654.6 334.2 648.8 331.2 649 330.5 649.1 329.8 649.1 329.1 649.1 324.1 645.1 320.1 640.1 320.1 635.1 320.1 631.1 324.1 631.1 329.1 631.1 329.8 631.2 330.6 631.4 331.2 625.6 334.2 621.5 340.2 621.2 347.1L621.2 347C620.6 371.3 611.5 374.2 607.8 382.4 606.8 383.7 606.2 385 606.2 386.5 606 394 621.2 400 640 400 658.8 400 674 394 674 386.5 674 385.1 673.5 383.7 672.4 382.4ZM640 324C642.8 324 645 326.2 645 329 645 329.2 645 329.4 644.9 329.7 643.4 329.2 641.7 329 640 329 638.3 329 636.6 329.2 635.1 329.7 635.1 329.5 635 329.3 635 329 635 326.2 637.2 324 640 324ZM640 394C622.5 394 613 388.7 612 386.5 612.8 384.6 620.5 380.1 634.6 379.2 634.2 380 633.9 381 633.9 382 633.9 385.3 636.6 388 640 388 643.4 388 646.1 385.3 646.1 382 646.1 381 645.8 380 645.4 379.2 659.5 380.1 667.2 384.6 668 386.5 667 388.7 657.5 394 640 394Z" fill="#00DA63" fill-opacity="0.515019"/></g></svg>