<svg width="96" height="96" xmlns="http://www.w3.org/2000/svg" xmlns:xlink="http://www.w3.org/1999/xlink" xml:space="preserve" overflow="hidden"><g transform="translate(-545 -250)"><path d="M601.898 306.783 602.102 308.773 579.101 311.132 578.897 309.143Z" stroke="#FBE905" stroke-width="1.33333" fill="#FFFFFF"/><path d="M566 332 566 326 571 326 571 317.907 607.291 314.376C608.83 314.231 610.005 312.936 610 311.39L610 284.732C610.004 283.19 608.835 281.897 607.3 281.747L571 278.1 571 270 566 270 566 264 559 264 559 332ZM607.1 283.737C607.611 283.788 608 284.218 608 284.732L608 311.39C608.003 311.905 607.613 312.339 607.1 312.39L571 315.9 571 280.105ZM561 330 561 266 564 266 564 272 569 272 569 324 564 324 564 330Z" stroke="#FBE905" stroke-width="1.33333" fill="#FFFFFF"/><path d="M627 297 627 299 615 299 615 297Z" stroke="#FBE905" stroke-width="1.33333" fill="#FFFFFF"/><path d="M598 264 598 274 596 274 596 264Z" stroke="#FBE905" stroke-width="1.33333" fill="#FFFFFF"/><path d="M598 322 598 332 596 332 596 322Z" stroke="#FBE905" stroke-width="1.33333" fill="#FFFFFF"/><path d="M620.293 269.293 621.707 270.707 613.707 278.707 612.293 277.293Z" stroke="#FBE905" stroke-width="1.33333" fill="#FFFFFF"/><path d="M613.707 317.293 621.707 325.293 620.293 326.707 612.293 318.707Z" stroke="#FBE905" stroke-width="1.33333" fill="#FFFFFF"/></g></svg>