<svg width="96" height="96" xmlns="http://www.w3.org/2000/svg" xmlns:xlink="http://www.w3.org/1999/xlink" xml:space="preserve" overflow="hidden"><g transform="translate(-592 -312)"><path d="M669.69 375.144C665.163 369.176 658.963 361 658.963 346.171 658.963 339.213 654.963 332.721 649.063 330.048 648.349 329.701 647.607 329.416 646.845 329.194 646.92 328.787 646.959 328.374 646.961 327.96 646.976 324.116 643.871 320.988 640.027 320.974 636.183 320.959 633.056 324.064 633.041 327.908 633.039 328.329 633.076 328.751 633.151 329.166 632.409 329.384 631.69 329.67 631 330.019 625.042 332.719 621.039 339.213 621.039 346.171 621.039 361.003 614.839 369.176 610.312 375.144 607.741 378.531 605.712 381.206 605.712 384.029 605.712 391.846 620.993 398.572 639.361 398.982L640.643 398.982C659.011 398.572 674.292 391.846 674.292 384.029 674.29 381.206 672.261 378.531 669.69 375.144ZM640 323C642.738 323.003 644.957 325.222 644.96 327.96 644.958 328.207 644.938 328.453 644.9 328.697 644.181 328.545 643.392 328.404 642.5 328.297 640.423 328.046 638.321 328.09 636.257 328.428 635.847 328.497 635.463 328.572 635.098 328.651 635.064 328.422 635.046 328.19 635.043 327.958 635.047 325.222 637.264 323.005 640 323ZM611.9 376.353C616.334 370.508 623.035 361.676 623.035 346.171 622.968 340.075 626.415 334.484 631.892 331.805 633.376 331.106 634.957 330.634 636.582 330.405 637.646 330.228 638.722 330.139 639.8 330.14 640.625 330.141 641.449 330.189 642.268 330.285 644.312 330.467 646.31 330.993 648.179 331.84 653.622 334.527 657.04 340.101 656.966 346.171 656.966 361.676 663.666 370.508 668.101 376.353 669.418 377.965 670.59 379.691 671.601 381.511 671.615 381.538 671.608 381.543 671.586 381.521 666.313 376.371 652.8 373.15 640 373.15 627.2 373.15 613.689 376.37 608.42 381.52 608.398 381.542 608.391 381.538 608.405 381.509 609.415 379.69 610.584 377.965 611.9 376.353ZM644.063 378.22C644.689 380.471 643.372 382.803 641.121 383.429 640.38 383.635 639.597 383.635 638.856 383.429 637.435 383.042 636.324 381.932 635.937 380.511 635.31 378.261 636.626 375.928 638.876 375.301 639.618 375.094 640.402 375.094 641.144 375.3 642.566 375.687 643.677 376.798 644.063 378.22ZM640 396.993C623.4 396.753 610.625 391.314 608.152 385.9 608.652 381.217 619.841 376.151 635.326 375.283 633.064 377.864 633.322 381.791 635.904 384.053 638.485 386.316 642.412 386.057 644.674 383.476 646.729 381.131 646.729 377.627 644.674 375.283 660.159 376.151 671.343 381.217 671.848 385.9 669.375 391.314 656.6 396.753 640 396.993Z" fill="#FFC000" fill-opacity="0.64"/></g></svg>